<?xml version="1.0" encoding="UTF-8" standalone="no"?>
<!-- Created with Inkscape (http://www.inkscape.org/) -->

<svg
   xmlns:dc="http://purl.org/dc/elements/1.1/"
   xmlns:cc="http://creativecommons.org/ns#"
   xmlns:rdf="http://www.w3.org/1999/02/22-rdf-syntax-ns#"
   xmlns:svg="http://www.w3.org/2000/svg"
   xmlns="http://www.w3.org/2000/svg"
   xmlns:sodipodi="http://sodipodi.sourceforge.net/DTD/sodipodi-0.dtd"
   xmlns:inkscape="http://www.inkscape.org/namespaces/inkscape"
   width="210mm"
   height="297mm"
   viewBox="0 0 210 297"
   version="1.1"
   id="svg8"
   inkscape:version="0.92.1 r15371"
   sodipodi:docname="fundo.svg">
  <defs
     id="defs2" />
  <sodipodi:namedview
     id="base"
     pagecolor="#ffffff"
     bordercolor="#666666"
     borderopacity="1.0"
     inkscape:pageopacity="0.0"
     inkscape:pageshadow="2"
     inkscape:zoom="0.7"
     inkscape:cx="159.14837"
     inkscape:cy="551.44888"
     inkscape:document-units="mm"
     inkscape:current-layer="layer1"
     showgrid="false"
     inkscape:window-width="1680"
     inkscape:window-height="997"
     inkscape:window-x="-8"
     inkscape:window-y="-8"
     inkscape:window-maximized="1" />
  <metadata
     id="metadata5">
    <rdf:RDF>
      <cc:Work
         rdf:about="">
        <dc:format>image/svg+xml</dc:format>
        <dc:type
           rdf:resource="http://purl.org/dc/dcmitype/StillImage" />
        <dc:title />
      </cc:Work>
    </rdf:RDF>
  </metadata>
  <g
     inkscape:label="Layer 1"
     inkscape:groupmode="layer"
     id="layer1">
    <path
       style="fill:#a05a2c;stroke:none;stroke-width:0.265;stroke-linecap:butt;stroke-linejoin:miter;stroke-opacity:1;stroke-miterlimit:4;stroke-dasharray:none"
       d="m 127.96156,215.86553 -5.10253,0.75602 0.94516,5.48029 -6.99286,3.0241 -2.64583,-4.53564 -4.53564,2.07843 2.07894,4.53564 -5.4808,5.29218 -3.59048,-2.64583 -4.157884,3.02358 3.590474,2.83498 -3.779609,6.99233 -4.913395,-1.88981 -1.701188,3.591 4.157884,3.21273 -2.456696,7.55922 H 88.08544 v 4.53564 l 4.535638,0.56741 1.133782,7.37009 -4.913913,1.51206 0.945163,4.53564 4.535641,-0.75603 2.645833,6.80372 -4.913394,3.77961 3.023587,4.34703 4.535641,-2.83497 4.347022,6.04769 -3.40186,3.40186 3.40186,3.96875 3.96875,-3.78013 6.04717,3.96875 -1.70067,4.34702 5.10253,3.21272 1.70119,-4.53564 7.9375,1.88981 -0.56689,4.15789 4.72426,0.94464 0.75603,-4.15737 6.99285,-0.94516 1.88981,5.10253 5.29167,-0.94464 -0.94517,-4.34703 6.61459,-3.21272 2.83497,4.72477 4.91391,-3.02358 -2.64583,-3.78013 5.66942,-4.9134 4.3465,3.40186 3.0241,-3.78013 -3.21272,-3.59048 4.53564,-6.04769 4.15789,1.51205 2.26756,-4.34702 -4.53564,-2.4567 2.07894,-7.18147 5.10253,0.37775 0.94516,-4.91339 -5.29166,-1.32292 -0.56689,-7.74888 4.91339,-0.56689 -0.75602,-5.66942 -4.53564,1.51205 -3.40186,-7.37061 4.53564,-2.64583 -2.4567,-4.53564 -3.59048,2.83445 -5.66994,-6.99234 3.40186,-3.77961 -3.21272,-3.02411 -3.40186,3.591 -7.55975,-4.53564 2.26808,-3.96875 -4.53564,-2.45722 -1.51205,4.91392 -8.31526,-2.83497 1.13379,-4.72478 -5.10254,-0.56689 -0.56688,4.72477 -7.74889,0.5669 z m 10.11101,9.73273 -3.49643,11.24479 1.79576,2.64584 -2.74041,2.17351 0.75603,10.77195 -3.8747,0.75603 -3.59048,-10.48877 -2.92953,-0.75602 0.47284,-3.21273 -7.27604,-8.78809 z m 1.62935,0.50333 19.30994,8.6863 -9.22063,7.01559 -0.13384,3.47472 -3.74137,-0.20051 -5.61258,9.02013 -3.47472,-1.53686 3.27422,-10.28981 -2.20504,-2.73937 2.60553,-2.33887 z m -24.05434,5.21157 3.20704,10.15649 3.74189,1.33635 -0.8015,2.93987 6.94893,8.81962 -2.67271,2.6727 -8.55296,-6.68176 -3.74138,1.8712 -0.80201,-3.47472 -11.84941,-2.94401 z m 44.56731,4.81108 10.22314,18.10742 -11.35899,0.40101 -2.00453,2.80603 -2.73989,-2.13786 -10.42313,3.94188 -1.6707,-3.54139 8.55297,-6.74842 0.0667,-2.87321 3.20704,-0.2005 z m -59.8687,11.82667 9.88932,6.54791 2.93987,-0.66817 1.20251,2.60604 10.08982,2.80603 -0.2005,4.3434 -10.15649,0.13333 -2.07119,2.53938 -2.87321,-1.73736 -11.225151,4.34289 z m 70.42567,8.55244 -2.20503,20.57963 -9.15396,-6.74843 -3.67471,1.00201 -0.66818,-3.0732 -11.02517,-2.60604 0.33435,-4.41007 11.15849,0.2005 1.93787,-2.53886 2.40502,1.33635 z m -36.08151,1.00201 a 5.1449385,5.1449385 0 0 1 5.1449,5.14542 5.1449385,5.1449385 0 0 1 -5.1449,5.14491 5.1449385,5.1449385 0 0 1 -5.14491,-5.14491 5.1449385,5.1449385 0 0 1 5.14491,-5.14542 z m -9.95547,8.55297 2.07119,3.40754 -8.61963,6.14743 0.20051,3.2737 -3.34088,0.46767 -6.21409,10.08983 -10.623645,-18.97611 12.093835,-0.26768 2.00453,-2.53886 2.93987,1.87068 z m 18.50843,1.60352 8.55245,6.08024 3.27422,-0.73483 1.80402,2.93987 10.75749,2.87321 -14.16503,15.30139 -3.67523,-11.15849 -3.27422,-0.80202 0.80202,-3.60805 -6.74842,-8.08478 z m -14.49937,3.14037 3.60805,1.87069 -3.00706,9.88932 1.6707,2.87321 -2.20503,2.6727 0.26717,10.82415 -18.84226,-8.68629 9.42113,-7.34994 -0.0667,-2.87321 3.27371,-0.20051 z m 10.02264,1.06919 3.0732,9.62163 3.40806,1.20251 -0.60151,3.27422 6.8156,9.0873 -20.17913,4.47673 3.40755,-11.29233 -2.0712,-2.80603 2.93988,-2.00453 -0.73484,-10.5575 z"
       id="path4496"
       inkscape:connector-curvature="0" />
    <path
       style="fill:#d45500;stroke:none;stroke-width:0.265;stroke-linecap:butt;stroke-linejoin:miter;stroke-opacity:1;stroke-miterlimit:4;stroke-dasharray:none"
       d="m 102.43754,179.51685 -6.013587,1.33635 1.202513,5.87974 -5.745903,3.20704 -4.142899,-5.34541 -4.944402,3.74189 4.677234,5.61258 -4.009058,4.94492 -6.013586,-2.27221 -2.004529,5.74641 5.612577,2.13837 -0.267167,6.54793 -6.147428,1.33635 0.802018,5.87974 6.013586,-1.20251 2.672705,5.61258 -4.276224,4.1429 4.009057,4.9444 4.009057,-3.87522 5.345411,3.60805 -2.13837,5.61258 6.147427,2.6727 2.137854,-5.47925 6.414594,0.13385 1.06919,5.87974 5.47873,-0.93534 -0.53433,-6.01359 6.01358,-2.40554 3.87522,4.27622 4.9444,-3.60804 -4.14238,-4.9444 3.74189,-5.47874 6.01307,2.53886 1.8712,-5.87974 -6.14743,-2.00453 1.33636,-6.94945 5.74642,-0.66817 -0.93535,-6.41408 -6.01358,0.93534 -3.07372,-5.74642 5.21157,-3.87521 -4.54339,-5.07824 -4.27623,4.14289 -5.47925,-3.60856 2.27221,-5.87975 -5.61309,-2.13837 -2.53886,5.6131 -6.4146,-0.26768 z m -0.26717,9.53171 a 5.9696722,5.9696722 0 0 1 5.96966,5.96966 5.9696722,5.9696722 0 0 1 -5.96966,5.96967 5.9696722,5.9696722 0 0 1 -5.969659,-5.96967 5.9696722,5.9696722 0 0 1 5.969659,-5.96966 z m 16.03623,7.88428 a 5.9696722,5.9696722 0 0 1 5.96967,5.97017 5.9696722,5.9696722 0 0 1 -5.96967,5.96967 5.9696722,5.9696722 0 0 1 -5.96966,-5.96967 5.9696722,5.9696722 0 0 1 5.96966,-5.97017 z m -28.197242,4.94491 a 5.9696722,5.9696722 0 0 1 5.969662,5.96967 5.9696722,5.9696722 0 0 1 -5.969662,5.96966 5.9696722,5.9696722 0 0 1 -5.969661,-5.96966 5.9696722,5.9696722 0 0 1 5.969661,-5.96967 z m 14.833722,2.00453 a 5.9696722,5.9696722 0 0 1 5.96966,5.96966 5.9696722,5.9696722 0 0 1 -5.96966,5.96967 5.9696722,5.9696722 0 0 1 -5.969662,-5.96967 5.9696722,5.9696722 0 0 1 5.969662,-5.96966 z m 11.22515,10.55698 a 5.9696722,5.9696722 0 0 1 5.96967,5.96966 5.9696722,5.9696722 0 0 1 -5.96967,5.96966 5.9696722,5.9696722 0 0 1 -5.96966,-5.96966 5.9696722,5.9696722 0 0 1 5.96966,-5.96966 z m -18.174082,3.20704 a 5.9696722,5.9696722 0 0 1 5.969662,5.96966 5.9696722,5.9696722 0 0 1 -5.969662,5.96966 5.9696722,5.9696722 0 0 1 -5.969662,-5.96966 5.9696722,5.9696722 0 0 1 5.969662,-5.96966 z"
       id="path4545"
       inkscape:connector-curvature="0" />
    <path
       style="fill:#c87137;stroke:none;stroke-width:0.265;stroke-linecap:butt;stroke-linejoin:miter;stroke-opacity:1;stroke-miterlimit:4;stroke-dasharray:none"
       d="m 116.40928,147.38289 -1.60352,5.07824 -4.94492,1.06867 -2.93987,-4.9444 -4.27622,2.6727 2.6727,4.81108 -2.6727,4.27623 -5.345413,-1.73737 -1.202511,5.34541 5.077724,0.93535 1.4702,5.21208 -5.078246,2.80603 2.539376,4.27623 4.67724,-2.67271 3.87521,2.67271 -0.93534,5.74642 5.07824,1.20302 0.93535,-5.88026 5.61257,-0.53433 2.53887,4.81056 4.27622,-2.67271 -2.93987,-4.9444 2.6727,-3.47421 5.61258,1.06867 1.33635,-4.9444 -5.7459,-1.33635 -0.53485,-4.9444 4.41007,-3.20704 -2.67271,-4.54391 -4.41006,3.34088 -4.14239,-3.0732 1.20251,-5.3454 z m -2.00453,13.49685 a 4.9444862,4.9444862 0 0 1 4.9444,4.9444 4.9444862,4.9444862 0 0 1 -4.9444,4.94492 4.9444862,4.9444862 0 0 1 -4.9444,-4.94492 4.9444862,4.9444862 0 0 1 4.9444,-4.9444 z"
       id="path4559"
       inkscape:connector-curvature="0" />
    <path
       style="fill:#aa4400;stroke:none;stroke-width:0.265;stroke-linecap:butt;stroke-linejoin:miter;stroke-opacity:1;stroke-miterlimit:4;stroke-dasharray:none"
       d="m 82.250657,253.19089 -5.61311,0.40101 0.13386,4.81108 -5.47926,1.60352 -2.40504,-4.41007 -4.67722,2.13837 2.40501,4.81056 -3.87519,4.00906 -4.00908,-2.40502 -3.47419,4.67723 4.54337,2.13786 -0.93532,5.21157 -4.9444,0.26768 -0.26768,5.47873 4.81107,-0.26716 1.87069,5.34541 -4.5434,2.93987 2.13786,4.67723 5.07823,-2.53886 3.60804,3.47421 -2.27169,4.1429 3.87575,2.53886 3.07319,-4.00906 5.21208,0.93586 -0.26718,5.21157 5.74591,0.53433 0.2677,-5.21156 4.67723,-1.20251 2.67218,4.14238 4.81108,-2.40554 -2.93987,-4.54339 4.27622,-3.87522 4.811083,2.67271 2.53886,-4.54391 -4.81107,-2.6727 1.60403,-5.47874 4.9444,0.13332 0.26717,-5.07824 -5.21157,0.13384 -1.60403,-5.61257 4.67723,-2.67271 -2.80603,-4.9444 -4.00906,2.93987 -4.276223,-4.1429 2.80603,-4.27622 -4.81056,-3.20704 -2.53937,4.67723 -4.81058,-1.8712 z m 1.87069,10.42366 8.55244,6.01358 -3.47421,3.74189 -7.75095,-5.74641 z m -9.62166,0.40101 2.67272,4.1429 -7.61712,5.21156 -3.47472,-3.74189 z m 4.61008,11.359 a 4.0758599,4.0758599 0 0 1 4.07622,4.07571 4.0758599,4.0758599 0 0 1 -4.07622,4.07572 4.0758599,4.0758599 0 0 1 -4.07572,-4.07572 4.0758599,4.0758599 0 0 1 4.07572,-4.07571 z m 11.42616,2.27169 5.21157,1.20251 -3.47472,9.88932 -4.67724,-2.00453 z m -22.31697,0.40101 2.40501,8.41912 -4.5434,2.00453 -2.67269,-9.35447 z m 6.01358,11.09183 9.75495,0.40049 0.40101,5.34541 -10.42366,-0.26717 z"
       id="path4576"
       inkscape:connector-curvature="0" />
    <path
       style="fill:#ff6600;stroke:none;stroke-width:0.265;stroke-linecap:butt;stroke-linejoin:miter;stroke-opacity:1;stroke-miterlimit:4;stroke-dasharray:none"
       d="m 157.1845,137.94935 -5.34541,0.26717 v 6.28127 l -2.40502,0.93534 -4.67723,-2.93987 -2.80655,4.27622 4.9444,3.20704 0.13384,3.20704 -4.81107,2.80655 2.80654,4.27622 4.41007,-3.07371 3.0732,1.73736 0.66818,5.47925 4.67723,-0.26716 -0.13333,-5.88026 2.53887,-1.06919 4.5439,2.94039 2.40503,-5.07824 -4.5434,-2.67271 v -2.53886 l 4.41007,-2.80655 -2.93987,-4.67723 -4.1429,2.80654 -2.93987,-1.60403 z m -2.53886,8.42739 a 4.9360322,4.9360293 0 0 1 4.93613,4.93614 4.9360322,4.9360293 0 0 1 -4.93613,4.93613 4.9360322,4.9360293 0 0 1 -4.93613,-4.93613 4.9360322,4.9360293 0 0 1 4.93613,-4.93614 z"
       id="path4588"
       inkscape:connector-curvature="0" />
    <path
       style="fill:#a05a2c;stroke:none;stroke-width:0.265;stroke-linecap:butt;stroke-linejoin:miter;stroke-opacity:1;stroke-miterlimit:4;stroke-dasharray:none"
       d="m 179.28917,165.85823 -5.10253,0.75602 0.94517,5.48029 -6.99287,3.0241 -2.64583,-4.53564 -4.53564,2.07843 2.07894,4.53564 -5.4808,5.29218 -3.59048,-2.64583 -4.15788,3.02358 3.59047,2.83498 -3.77961,6.99233 -4.91339,-1.88981 -1.70119,3.591 4.15789,3.21273 -2.4567,7.55922 h -5.29167 v 4.53564 l 4.53564,0.56741 1.13378,7.37009 -4.91391,1.51206 0.94516,4.53564 4.53564,-0.75603 2.64584,6.80373 -4.9134,3.77961 3.02359,4.34703 4.53564,-2.83497 4.34702,6.04769 -3.40186,3.40186 3.40186,3.96875 3.96875,-3.78013 6.04717,3.96875 -1.70067,4.34702 5.10253,3.21272 1.70119,-4.53564 7.9375,1.88981 -0.56689,4.15789 4.72426,0.94464 0.75603,-4.15737 6.99285,-0.94516 1.88981,5.10253 5.29167,-0.94464 -0.94516,-4.34703 6.61458,-3.21272 2.83497,4.72477 4.91392,-3.02358 -2.64584,-3.78013 5.66943,-4.9134 4.3465,3.40186 3.02409,-3.78013 -3.21272,-3.59048 4.53565,-6.04769 4.15789,1.51205 2.26755,-4.34702 -4.53563,-2.4567 2.07894,-7.18148 5.10253,0.37776 0.94516,-4.9134 -5.29167,-1.32292 -0.56688,-7.74888 4.91339,-0.56688 -0.75603,-5.66943 -4.53563,1.51205 -3.40187,-7.37061 4.53565,-2.64583 -2.45671,-4.53564 -3.59048,2.83446 -5.66993,-6.99235 3.40185,-3.77961 -3.21271,-3.02411 -3.40186,3.591 -7.55976,-4.53564 2.26808,-3.96875 -4.53563,-2.45722 -1.51206,4.91392 -8.31525,-2.83497 1.13378,-4.72477 -5.10253,-0.5669 -0.56689,4.72477 -7.74889,0.5669 z m 10.11101,9.73273 -3.49643,11.24479 1.79576,2.64584 -2.7404,2.17351 0.75602,10.77196 -3.8747,0.75602 -3.59048,-10.48877 -2.92953,-0.75602 0.47284,-3.21273 -7.27604,-8.78809 z m 1.62935,0.50333 19.30995,8.6863 -9.22064,7.01559 -0.13384,3.47472 -3.74136,-0.20051 -5.61258,9.02013 -3.47472,-1.53686 3.27421,-10.28981 -2.20504,-2.73937 2.60553,-2.33887 z m -24.05434,5.21158 3.20704,10.15648 3.7419,1.33635 -0.80151,2.93987 6.94894,8.81962 -2.67271,2.6727 -8.55297,-6.68175 -3.74138,1.87119 -0.80201,-3.47472 -11.84941,-2.94401 z m 44.56731,4.81108 10.22314,18.10741 -11.35899,0.40101 -2.00453,2.80604 -2.73989,-2.13786 -10.42313,3.94187 -1.6707,-3.54139 8.55297,-6.74842 0.0667,-2.87321 3.20705,-0.20049 z m -59.8687,11.82666 9.88932,6.54791 2.93987,-0.66817 1.20251,2.60604 10.08982,2.80603 -0.2005,4.3434 -10.15649,0.13333 -2.07119,2.53938 -2.87321,-1.73736 -11.22515,4.34289 z m 70.42568,8.55244 -2.20503,20.57964 -9.15397,-6.74843 -3.6747,1.002 -0.66819,-3.07319 -11.02516,-2.60604 0.33434,-4.41007 11.15849,0.20049 1.93788,-2.53886 2.40502,1.33635 z m -36.08152,1.00201 a 5.1449385,5.1449385 0 0 1 5.1449,5.14543 5.1449385,5.1449385 0 0 1 -5.1449,5.14491 5.1449385,5.1449385 0 0 1 -5.14491,-5.14491 5.1449385,5.1449385 0 0 1 5.14491,-5.14543 z m -9.95547,8.55298 2.07119,3.40754 -8.61963,6.14743 0.20051,3.2737 -3.34088,0.46767 -6.21409,10.08983 -10.62364,-18.97612 12.09383,-0.26768 2.00453,-2.53886 2.93987,1.87068 z m 18.50844,1.60351 8.55245,6.08025 3.27421,-0.73483 1.80402,2.93987 10.7575,2.87321 -14.16504,15.30139 -3.67523,-11.15849 -3.27421,-0.80202 0.80201,-3.60805 -6.74842,-8.08479 z m -14.49937,3.14037 3.60804,1.87069 -3.00706,9.88933 1.6707,2.87321 -2.20503,2.6727 0.26718,10.82415 -18.84227,-8.68629 9.42114,-7.34994 -0.0667,-2.87321 3.27371,-0.20051 z m 10.02263,1.06919 3.07321,9.62164 3.40805,1.20251 -0.60151,3.27422 6.81561,9.0873 -20.17914,4.47673 3.40755,-11.29233 -2.0712,-2.80603 2.93988,-2.00453 -0.73484,-10.5575 z"
       id="path4496-7"
       inkscape:connector-curvature="0" />
    <path
       style="fill:#d45500;stroke:none;stroke-width:0.265;stroke-linecap:butt;stroke-linejoin:miter;stroke-opacity:1;stroke-miterlimit:4;stroke-dasharray:none"
       d="m 179.75219,232.54254 -6.01358,1.33635 1.20251,5.87974 -5.7459,3.20704 -4.1429,-5.34541 -4.9444,3.74189 4.67723,5.61258 -4.00906,4.94492 -6.01358,-2.27221 -2.00453,5.74641 5.61257,2.13837 -0.26716,6.54793 -6.14743,1.33636 0.80202,5.87974 6.01358,-1.20251 2.67271,5.61258 -4.27623,4.14289 4.00906,4.9444 4.00906,-3.87521 5.34541,3.60804 -2.13837,5.61258 6.14743,2.67271 2.13785,-5.47926 6.4146,0.13385 1.06918,5.87974 5.47873,-0.93533 -0.53433,-6.01359 6.01358,-2.40555 3.87523,4.27622 4.94439,-3.60803 -4.14238,-4.94441 3.74189,-5.47874 6.01307,2.53886 1.8712,-5.87974 -6.14743,-2.00452 1.33636,-6.94946 5.74643,-0.66817 -0.93536,-6.41408 -6.01358,0.93534 -3.07372,-5.74642 5.21158,-3.8752 -4.5434,-5.07825 -4.27623,4.14289 -5.47925,-3.60856 2.27221,-5.87974 -5.61309,-2.13838 -2.53886,5.6131 -6.41459,-0.26768 z m -0.26716,9.53171 a 5.9696723,5.9696723 0 0 1 5.96965,5.96966 5.9696723,5.9696723 0 0 1 -5.96965,5.96968 5.9696723,5.9696723 0 0 1 -5.96966,-5.96968 5.9696723,5.9696723 0 0 1 5.96966,-5.96966 z m 16.03622,7.88428 a 5.9696723,5.9696723 0 0 1 5.96968,5.97017 5.9696723,5.9696723 0 0 1 -5.96968,5.96968 5.9696723,5.9696723 0 0 1 -5.96966,-5.96968 5.9696723,5.9696723 0 0 1 5.96966,-5.97017 z m -28.19724,4.94492 a 5.9696723,5.9696723 0 0 1 5.96966,5.96966 5.9696723,5.9696723 0 0 1 -5.96966,5.96966 5.9696723,5.9696723 0 0 1 -5.96966,-5.96966 5.9696723,5.9696723 0 0 1 5.96966,-5.96966 z m 14.83372,2.00452 a 5.9696723,5.9696723 0 0 1 5.96967,5.96967 5.9696723,5.9696723 0 0 1 -5.96967,5.96966 5.9696723,5.9696723 0 0 1 -5.96966,-5.96966 5.9696723,5.9696723 0 0 1 5.96966,-5.96967 z m 11.22515,10.55698 a 5.9696723,5.9696723 0 0 1 5.96967,5.96966 5.9696723,5.9696723 0 0 1 -5.96967,5.96966 5.9696723,5.9696723 0 0 1 -5.96966,-5.96966 5.9696723,5.9696723 0 0 1 5.96966,-5.96966 z M 175.2088,270.672 a 5.9696723,5.9696723 0 0 1 5.96966,5.96965 5.9696723,5.9696723 0 0 1 -5.96966,5.96966 5.9696723,5.9696723 0 0 1 -5.96966,-5.96966 5.9696723,5.9696723 0 0 1 5.96966,-5.96965 z"
       id="path4545-9"
       inkscape:connector-curvature="0" />
    <path
       style="fill:#c87137;stroke:none;stroke-width:0.265;stroke-linecap:butt;stroke-linejoin:miter;stroke-opacity:1;stroke-miterlimit:4;stroke-dasharray:none"
       d="m 146.42651,54.36117 -1.60353,5.07824 -4.94491,1.06867 -2.93988,-4.9444 -4.27622,2.6727 2.6727,4.81108 -2.6727,4.27623 -5.34541,-1.73737 -1.20251,5.34541 5.07772,0.93535 1.4702,5.21208 -5.07824,2.80603 2.53938,4.27623 4.67723,-2.67271 3.87521,2.67271 -0.93534,5.74642 5.07824,1.20302 0.93535,-5.88026 5.61258,-0.53433 2.53886,4.81056 4.27623,-2.67271 -2.93987,-4.94439 2.67269,-3.47422 5.61258,1.06867 1.33635,-4.9444 -5.7459,-1.33635 -0.53485,-4.9444 4.41008,-3.20704 -2.67272,-4.54391 -4.41006,3.34088 -4.14239,-3.0732 1.20251,-5.3454 z m -2.00454,13.49685 a 4.9444862,4.9444862 0 0 1 4.94441,4.9444 4.9444862,4.9444862 0 0 1 -4.94441,4.94492 4.9444862,4.9444862 0 0 1 -4.9444,-4.94492 4.9444862,4.9444862 0 0 1 4.9444,-4.9444 z"
       id="path4559-3"
       inkscape:connector-curvature="0" />
    <path
       style="fill:#aa4400;stroke:none;stroke-width:0.265;stroke-linecap:butt;stroke-linejoin:miter;stroke-opacity:1;stroke-miterlimit:4;stroke-dasharray:none"
       d="m 116.23559,113.85727 -5.61311,0.40101 0.13386,4.81108 -5.47926,1.60352 -2.40504,-4.41007 -4.67722,2.13838 2.40501,4.81055 -3.87519,4.00906 -4.00908,-2.40502 -3.47419,4.67723 4.54337,2.13787 -0.93532,5.21157 -4.9444,0.26767 -0.26768,5.47873 4.81107,-0.26716 1.87069,5.34542 -4.5434,2.93987 2.13786,4.67723 5.07823,-2.53886 3.60804,3.47421 -2.27169,4.1429 3.87575,2.53886 3.07319,-4.00906 5.21208,0.93586 -0.26718,5.21157 5.74591,0.53433 0.2677,-5.21156 4.67723,-1.20251 2.67218,4.14238 4.81108,-2.40554 -2.93987,-4.54339 4.27622,-3.87522 4.81108,2.67271 2.53886,-4.54391 -4.81107,-2.6727 1.60403,-5.47874 4.9444,0.13331 0.26717,-5.07824 -5.21157,0.13385 -1.60403,-5.61258 4.67723,-2.67271 -2.80603,-4.94439 -4.00906,2.93987 -4.27622,-4.14291 2.80603,-4.27622 -4.81056,-3.20704 -2.53937,4.67723 -4.81058,-1.8712 z m 1.87069,10.42366 8.55244,6.01359 -3.47421,3.74188 -7.75095,-5.7464 z m -9.62166,0.40101 2.67272,4.14291 -7.61712,5.21155 -3.47472,-3.74188 z m 4.61008,11.35901 a 4.0758599,4.0758599 0 0 1 4.07622,4.0757 4.0758599,4.0758599 0 0 1 -4.07622,4.07572 4.0758599,4.0758599 0 0 1 -4.07572,-4.07572 4.0758599,4.0758599 0 0 1 4.07572,-4.0757 z m 11.42616,2.27168 5.21157,1.20251 -3.47472,9.88933 -4.67724,-2.00453 z m -22.31697,0.40101 2.40501,8.41913 -4.5434,2.00453 -2.67269,-9.35447 z m 6.01358,11.09184 9.75495,0.40049 0.40101,5.34541 -10.42366,-0.26717 z"
       id="path4576-9"
       inkscape:connector-curvature="0" />
    <path
       style="fill:#ff6600;stroke:none;stroke-width:0.265;stroke-linecap:butt;stroke-linejoin:miter;stroke-opacity:1;stroke-miterlimit:4;stroke-dasharray:none"
       d="m 197.40709,13.933582 -5.34542,0.26717 v 6.28127 l -2.40502,0.93534 -4.67723,-2.93987 -2.80655,4.27622 4.9444,3.20704 0.13385,3.20704 -4.81108,2.80655 2.80654,4.27622 4.41007,-3.07371 3.07321,1.73736 0.66817,5.47925 4.67724,-0.26716 -0.13333,-5.88026 2.53886,-1.06919 4.54391,2.94039 2.40503,-5.07824 -4.54341,-2.67271 v -2.53886 l 4.41007,-2.80655 -2.93987,-4.67723 -4.14289,2.80654 -2.93988,-1.60403 z m -2.53887,8.42739 a 4.9360323,4.9360294 0 0 1 4.93613,4.93614 4.9360323,4.9360294 0 0 1 -4.93613,4.93613 4.9360323,4.9360294 0 0 1 -4.93613,-4.93613 4.9360323,4.9360294 0 0 1 4.93613,-4.93614 z"
       id="path4588-5"
       inkscape:connector-curvature="0" />
    <path
       style="fill:#a05a2c;stroke:none;stroke-width:0.265;stroke-linecap:butt;stroke-linejoin:miter;stroke-opacity:1;stroke-miterlimit:4;stroke-dasharray:none"
       d="m 177.94714,117.01108 -5.10253,0.75602 0.94516,5.48029 -6.99286,3.0241 -2.64583,-4.53564 -4.53564,2.07843 2.07894,4.53564 -5.4808,5.29218 -3.59048,-2.64583 -4.15789,3.02358 3.59048,2.83498 -3.77961,6.99233 -4.9134,-1.88981 -1.70119,3.591 4.15789,3.21273 -2.4567,7.55922 h -5.29166 v 4.53564 l 4.53564,0.56741 1.13378,7.37009 -4.91392,1.51206 0.94517,4.53564 4.53564,-0.75603 2.64583,6.80373 -4.91339,3.77961 3.02358,4.34703 4.53564,-2.83497 4.34703,6.04769 -3.40186,3.40186 3.40186,3.96875 3.96875,-3.78013 6.04717,3.96875 -1.70067,4.34702 5.10253,3.21272 1.70119,-4.53564 7.9375,1.88981 -0.56689,4.15789 4.72426,0.94464 0.75603,-4.15737 6.99285,-0.94516 1.88981,5.10253 5.29167,-0.94464 -0.94517,-4.34703 6.61459,-3.21272 2.83497,4.72477 4.91391,-3.02358 -2.64583,-3.78013 5.66942,-4.9134 4.3465,3.40186 3.02409,-3.78013 -3.21272,-3.59048 4.53565,-6.04769 4.15789,1.51205 2.26755,-4.34702 -4.53563,-2.4567 2.07894,-7.18148 5.10253,0.37776 0.94516,-4.9134 -5.29167,-1.32292 -0.56688,-7.74888 4.91339,-0.56688 -0.75603,-5.66943 -4.53563,1.51205 -3.40187,-7.37061 4.53565,-2.64583 -2.45671,-4.53564 -3.59048,2.83446 -5.66993,-6.99235 3.40185,-3.77961 -3.21271,-3.02411 -3.40186,3.591 -7.55975,-4.53564 2.26808,-3.96875 -4.53564,-2.45722 -1.51205,4.91392 -8.31526,-2.83497 1.13379,-4.72477 -5.10254,-0.5669 -0.56688,4.72477 -7.74889,0.5669 z m 10.11101,9.73273 -3.49643,11.24479 1.79576,2.64584 -2.74041,2.17351 0.75603,10.77196 -3.8747,0.75602 -3.59048,-10.48877 -2.92953,-0.75602 0.47284,-3.21273 -7.27604,-8.78809 z m 1.62935,0.50333 19.30994,8.6863 -9.22063,7.01559 -0.13384,3.47472 -3.74137,-0.20051 -5.61258,9.02013 -3.47472,-1.53686 3.27422,-10.28981 -2.20504,-2.73937 2.60553,-2.33887 z m -24.05434,5.21158 3.20704,10.15648 3.74189,1.33635 -0.8015,2.93987 6.94893,8.81962 -2.67271,2.6727 -8.55296,-6.68175 -3.74138,1.87119 -0.80201,-3.47472 -11.84941,-2.94401 z m 44.5673,4.81108 10.22314,18.10741 -11.35899,0.40101 -2.00452,2.80604 -2.73989,-2.13786 -10.42313,3.94187 -1.6707,-3.54139 8.55297,-6.74842 0.0667,-2.87321 3.20704,-0.20049 z m -59.86869,11.82666 9.88932,6.54791 2.93987,-0.66817 1.20251,2.60604 10.08982,2.80603 -0.2005,4.3434 -10.15649,0.13333 -2.07119,2.53938 -2.87321,-1.73736 -11.22515,4.34289 z m 70.42567,8.55244 -2.20503,20.57964 -9.15397,-6.74843 -3.6747,1.002 -0.66818,-3.07319 -11.02517,-2.60604 0.33435,-4.41007 11.15849,0.20049 1.93787,-2.53886 2.40502,1.33635 z m -36.08151,1.00201 a 5.1449385,5.1449385 0 0 1 5.1449,5.14543 5.1449385,5.1449385 0 0 1 -5.1449,5.14491 5.1449385,5.1449385 0 0 1 -5.14491,-5.14491 5.1449385,5.1449385 0 0 1 5.14491,-5.14543 z m -9.95547,8.55298 2.07119,3.40754 -8.61963,6.14743 0.20051,3.2737 -3.34088,0.46767 -6.21409,10.08983 -10.62365,-18.97612 12.09384,-0.26768 2.00453,-2.53886 2.93987,1.87068 z m 18.50843,1.60351 8.55245,6.08025 3.27422,-0.73483 1.80402,2.93987 10.75749,2.87321 -14.16503,15.30139 -3.67523,-11.15849 -3.27422,-0.80202 0.80202,-3.60805 -6.74842,-8.08479 z m -14.49937,3.14037 3.60805,1.87069 -3.00706,9.88933 1.6707,2.87321 -2.20503,2.6727 0.26717,10.82415 -18.84226,-8.68629 9.42113,-7.34994 -0.0667,-2.87321 3.27371,-0.20051 z m 10.02264,1.06919 3.0732,9.62164 3.40806,1.20251 -0.60151,3.27422 6.8156,9.0873 -20.17913,4.47673 3.40755,-11.29233 -2.0712,-2.80603 2.93988,-2.00453 -0.73484,-10.5575 z"
       id="path4496-77"
       inkscape:connector-curvature="0" />
    <path
       style="fill:#d45500;stroke:none;stroke-width:0.265;stroke-linecap:butt;stroke-linejoin:miter;stroke-opacity:1;stroke-miterlimit:4;stroke-dasharray:none"
       d="m 145.05302,100.92111 -6.01359,1.33635 1.20251,5.87974 -5.7459,3.20704 -4.1429,-5.34541 -4.9444,3.74189 4.67723,5.61258 -4.00905,4.94492 -6.01359,-2.27221 -2.00453,5.74641 5.61258,2.13837 -0.26717,6.54793 -6.14743,1.33636 0.80202,5.87974 6.01359,-1.20251 2.6727,5.61258 -4.27622,4.14289 4.00905,4.9444 4.00906,-3.87521 5.34541,3.60804 -2.13837,5.61258 6.14743,2.67271 2.13785,-5.47926 6.4146,0.13385 1.06919,5.87974 5.47873,-0.93533 -0.53433,-6.01359 6.01358,-2.40555 3.87522,4.27622 4.9444,-3.60803 -4.14238,-4.94441 3.74189,-5.47874 6.01307,2.53886 1.8712,-5.87974 -6.14743,-2.00452 1.33636,-6.94946 5.74642,-0.66817 -0.93535,-6.41408 -6.01358,0.93534 -3.07372,-5.74642 5.21157,-3.8752 -4.54339,-5.07825 -4.27623,4.14289 -5.47925,-3.60856 2.27221,-5.87974 -5.61309,-2.13838 -2.53886,5.6131 -6.4146,-0.26768 z m -0.26717,9.53171 a 5.9696723,5.9696723 0 0 1 5.96966,5.96966 5.9696723,5.9696723 0 0 1 -5.96966,5.96968 5.9696723,5.9696723 0 0 1 -5.96966,-5.96968 5.9696723,5.9696723 0 0 1 5.96966,-5.96966 z m 16.03623,7.88428 a 5.9696723,5.9696723 0 0 1 5.96967,5.97017 5.9696723,5.9696723 0 0 1 -5.96967,5.96968 5.9696723,5.9696723 0 0 1 -5.96966,-5.96968 5.9696723,5.9696723 0 0 1 5.96966,-5.97017 z m -28.19724,4.94492 a 5.9696723,5.9696723 0 0 1 5.96966,5.96966 5.9696723,5.9696723 0 0 1 -5.96966,5.96966 5.9696723,5.9696723 0 0 1 -5.96967,-5.96966 5.9696723,5.9696723 0 0 1 5.96967,-5.96966 z m 14.83372,2.00452 a 5.9696723,5.9696723 0 0 1 5.96966,5.96967 5.9696723,5.9696723 0 0 1 -5.96966,5.96966 5.9696723,5.9696723 0 0 1 -5.96966,-5.96966 5.9696723,5.9696723 0 0 1 5.96966,-5.96967 z m 11.22515,10.55698 a 5.9696723,5.9696723 0 0 1 5.96967,5.96966 5.9696723,5.9696723 0 0 1 -5.96967,5.96966 5.9696723,5.9696723 0 0 1 -5.96966,-5.96966 5.9696723,5.9696723 0 0 1 5.96966,-5.96966 z m -18.17408,3.20705 a 5.9696723,5.9696723 0 0 1 5.96966,5.96965 5.9696723,5.9696723 0 0 1 -5.96966,5.96966 5.9696723,5.9696723 0 0 1 -5.96967,-5.96966 5.9696723,5.9696723 0 0 1 5.96967,-5.96965 z"
       id="path4545-0"
       inkscape:connector-curvature="0" />
    <path
       style="fill:#c87137;stroke:none;stroke-width:0.265;stroke-linecap:butt;stroke-linejoin:miter;stroke-opacity:1;stroke-miterlimit:4;stroke-dasharray:none"
       d="m 166.03365,87.023254 -1.60352,5.07824 -4.94492,1.06867 -2.93987,-4.9444 -4.27622,2.6727 2.6727,4.81108 -2.6727,4.27623 -5.34541,-1.73737 -1.20251,5.345406 5.07772,0.93535 1.4702,5.21208 -5.07825,2.80603 2.53938,4.27623 4.67724,-2.67271 3.87521,2.67271 -0.93534,5.74642 5.07824,1.20302 0.93535,-5.88026 5.61257,-0.53433 2.53887,4.81056 4.27622,-2.67271 -2.93987,-4.94439 2.6727,-3.47422 5.61258,1.06867 1.33635,-4.9444 -5.7459,-1.33635 -0.53485,-4.9444 4.41007,-3.207036 -2.67271,-4.54391 -4.41006,3.34088 -4.14239,-3.0732 1.20251,-5.3454 z m -2.00453,13.496846 a 4.9444862,4.9444862 0 0 1 4.9444,4.9444 4.9444862,4.9444862 0 0 1 -4.9444,4.94492 4.9444862,4.9444862 0 0 1 -4.9444,-4.94492 4.9444862,4.9444862 0 0 1 4.9444,-4.9444 z"
       id="path4559-1"
       inkscape:connector-curvature="0" />
    <path
       style="fill:#aa4400;stroke:none;stroke-width:0.265;stroke-linecap:butt;stroke-linejoin:miter;stroke-opacity:1;stroke-miterlimit:4;stroke-dasharray:none"
       d="m 137.27522,168.00898 -5.61312,0.40101 0.13386,4.81108 -5.47926,1.60352 -2.40504,-4.41007 -4.67722,2.13838 2.40501,4.81055 -3.87519,4.00906 -4.00908,-2.40502 -3.47419,4.67723 4.54337,2.13787 -0.93532,5.21157 -4.9444,0.26767 -0.26768,5.47873 4.81107,-0.26716 1.87069,5.34542 -4.5434,2.93987 2.13786,4.67723 5.07823,-2.53886 3.60804,3.47421 -2.27169,4.1429 3.87575,2.53886 3.07319,-4.00906 5.21208,0.93586 -0.26718,5.21157 5.74592,0.53433 0.2677,-5.21156 4.67723,-1.20251 2.67217,4.14238 4.81108,-2.40554 -2.93987,-4.54339 4.27623,-3.87522 4.81108,2.67271 2.53886,-4.54391 -4.81107,-2.6727 1.60403,-5.47874 4.9444,0.13331 0.26717,-5.07824 -5.21157,0.13385 -1.60403,-5.61258 4.67723,-2.67271 -2.80603,-4.94439 -4.00906,2.93987 -4.27623,-4.14291 2.80603,-4.27622 -4.81055,-3.20704 -2.53937,4.67723 -4.81058,-1.8712 z m 1.87068,10.42366 8.55244,6.01359 -3.47421,3.74188 -7.75095,-5.7464 z m -9.62166,0.40101 2.67272,4.14291 -7.61712,5.21155 -3.47472,-3.74188 z m 4.61008,11.35901 a 4.0758599,4.0758599 0 0 1 4.07622,4.0757 4.0758599,4.0758599 0 0 1 -4.07622,4.07572 4.0758599,4.0758599 0 0 1 -4.07572,-4.07572 4.0758599,4.0758599 0 0 1 4.07572,-4.0757 z m 11.42616,2.27168 5.21158,1.20251 -3.47472,9.88933 -4.67724,-2.00453 z m -22.31697,0.40101 2.40501,8.41913 -4.5434,2.00453 -2.67269,-9.35447 z m 6.01358,11.09184 9.75495,0.40049 0.40101,5.34541 -10.42366,-0.26717 z"
       id="path4576-6"
       inkscape:connector-curvature="0" />
    <path
       style="fill:#ff6600;stroke:none;stroke-width:0.265;stroke-linecap:butt;stroke-linejoin:miter;stroke-opacity:1;stroke-miterlimit:4;stroke-dasharray:none"
       d="m 206.80887,77.589714 -5.34541,0.26717 v 6.28127 l -2.40502,0.93534 -4.67723,-2.93987 -2.80655,4.27622 4.9444,3.20704 0.13384,3.20704 -4.81107,2.80655 2.80654,4.27622 4.41007,-3.07371 3.0732,1.73736 0.66818,5.479246 4.67723,-0.26716 -0.13333,-5.880256 2.53886,-1.06919 4.54391,2.94039 2.40503,-5.07824 -4.54341,-2.67271 v -2.53886 l 4.41007,-2.80655 -2.93987,-4.67723 -4.14289,2.80654 -2.93987,-1.60403 z m -2.53886,8.42739 a 4.9360323,4.9360294 0 0 1 4.93612,4.93614 4.9360323,4.9360294 0 0 1 -4.93612,4.93613 4.9360323,4.9360294 0 0 1 -4.93613,-4.93613 4.9360323,4.9360294 0 0 1 4.93613,-4.93614 z"
       id="path4588-0"
       inkscape:connector-curvature="0" />
    <path
       style="fill:#a05a2c;stroke:none;stroke-width:0.265;stroke-linecap:butt;stroke-linejoin:miter;stroke-opacity:1;stroke-miterlimit:4;stroke-dasharray:none"
       d="m 187.53792,-4.186754 -5.10253,0.75602 0.94516,5.480291 -6.99286,3.0241 -2.64583,-4.535641 -4.53565,2.078429 2.07894,4.535641 -5.48079,5.29218 -3.59048,-2.64583 -4.15789,3.023581 3.59048,2.834979 -3.77961,6.992336 -4.9134,-1.889815 -1.70119,3.590995 4.15789,3.21273 -2.4567,7.55922 h -5.29167 v 4.53565 l 4.53564,0.5674 1.13378,7.370096 -4.91391,1.51205 0.94516,4.53565 4.53565,-0.75604 2.64583,6.80373 -4.9134,3.779606 3.02359,4.34703 4.53564,-2.83497 4.34702,6.04769 -3.40185,3.40186 3.40185,3.96875 3.96875,-3.78013 6.04718,3.96875 -1.70067,4.34702 5.10252,3.21272 1.7012,-4.53564 7.9375,1.88981 -0.56689,4.15789 4.72426,0.94464 0.75603,-4.15737 6.99285,-0.94516 1.88981,5.10253 5.29167,-0.94464 -0.94517,-4.34703 6.61459,-3.21272 2.83497,4.72477 4.91391,-3.02358 -2.64583,-3.78013 5.66942,-4.9134 4.3465,3.40186 3.02409,-3.78013 -3.21272,-3.59048 4.53565,-6.04769 4.15789,1.51205 2.26755,-4.34702 -4.53563,-2.456696 2.07894,-7.18147 5.10253,0.37775 0.94516,-4.91339 -5.29167,-1.32292 -0.56688,-7.748886 4.91339,-0.56688 -0.75603,-5.66942 -4.53563,1.51204 -3.40187,-7.3706 4.53565,-2.64583 -2.45671,-4.535646 -3.59048,2.834452 -5.66993,-6.992342 3.40185,-3.77961 -3.21271,-3.024109 -3.40186,3.591 -7.55975,-4.535641 2.26808,-3.96875 -4.53564,-2.45722 -1.51205,4.913921 -8.31526,-2.834971 1.13379,-4.724778 -5.10254,-0.566891 -0.56688,4.72477 -7.7489,0.566899 z m 10.11101,9.732729 -3.49643,11.244792 1.79576,2.645839 -2.74041,2.173506 0.75603,10.77196 -3.8747,0.75602 -3.59048,-10.48876 -2.92953,-0.75602 0.47284,-3.212735 -7.27604,-8.78809 z m 1.62935,0.503331 19.30994,8.6863 -9.22063,7.015596 -0.13384,3.47472 -3.74137,-0.20051 -5.61258,9.02013 -3.47472,-1.53687 3.27422,-10.28981 -2.20504,-2.739365 2.60553,-2.338871 z m -24.05434,5.211572 3.20704,10.156494 3.74189,1.33634 -0.8015,2.93987 6.94893,8.81963 -2.67271,2.67269 -8.55296,-6.68175 -3.74138,1.8712 -0.80201,-3.47472 -11.84941,-2.94402 z m 44.5673,4.81108 10.22314,18.107424 -11.35899,0.40101 -2.00452,2.80603 -2.73989,-2.13786 -10.42313,3.94188 -1.6707,-3.54139 8.55297,-6.74842 0.0667,-2.87322 3.20704,-0.20049 z m -59.86869,11.826664 9.88931,6.54792 2.93987,-0.66817 1.20251,2.60604 10.08983,2.80603 -0.2005,4.343396 -10.15649,0.13332 -2.07119,2.53939 -2.87321,-1.73736 -11.22516,4.34288 z m 70.42567,8.55244 -2.20503,20.579636 -9.15397,-6.74843 -3.6747,1.00201 -0.66818,-3.0732 -11.02517,-2.60604 0.33435,-4.410066 11.15849,0.2005 1.93787,-2.53886 2.40502,1.33635 z m -36.08151,1.00202 a 5.1449385,5.1449385 0 0 1 5.1449,5.145416 5.1449385,5.1449385 0 0 1 -5.1449,5.14491 5.1449385,5.1449385 0 0 1 -5.14491,-5.14491 5.1449385,5.1449385 0 0 1 5.14491,-5.145416 z m -9.95547,8.552966 2.07119,3.40754 -8.61964,6.14743 0.20052,3.2737 -3.34088,0.46767 -6.2141,10.089826 -10.62364,-18.976106 12.09384,-0.26769 2.00452,-2.53886 2.93987,1.87069 z m 18.50843,1.60351 8.55245,6.08025 3.27422,-0.73483 1.80402,2.93987 10.75749,2.87321 -14.16503,15.301386 -3.67523,-11.15849 -3.27422,-0.80202 0.80202,-3.608046 -6.74842,-8.08478 z m -14.49937,3.14038 3.60805,1.87068 -3.00707,9.889326 1.67071,2.87321 -2.20503,2.6727 0.26717,10.82415 -18.84227,-8.68629 9.42114,-7.34994 -0.0667,-2.873206 3.27371,-0.20051 z m 10.02264,1.06919 3.0732,9.621626 3.40806,1.20251 -0.60151,3.27422 6.8156,9.0873 -20.17913,4.47673 3.40755,-11.29233 -2.0712,-2.80603 2.93988,-2.00453 -0.73484,-10.557496 z"
       id="path4496-8"
       inkscape:connector-curvature="0" />
    <path
       style="fill:#d45500;stroke:none;stroke-width:0.265;stroke-linecap:butt;stroke-linejoin:miter;stroke-opacity:1;stroke-miterlimit:4;stroke-dasharray:none"
       d="m 199.67035,37.043358 -6.01359,1.33635 1.20251,5.879741 -5.7459,3.207038 -4.1429,-5.345409 -4.9444,3.741891 4.67723,5.61258 -4.00906,4.94492 -6.01358,-2.27221 -2.00453,5.746409 5.61258,2.13837 -0.26717,6.54793 -6.14743,1.336352 0.80202,5.87974 6.01358,-1.20251 2.67271,5.612584 -4.27622,4.14289 4.00905,4.94441 4.00906,-3.87522 5.34541,3.60804 -2.13837,5.61258 6.14743,2.67271 2.13785,-5.47925 6.4146,0.13385 1.06918,5.87974 5.47874,-0.93534 -0.53433,-6.01359 6.01357,-2.40554 3.87523,4.27621 4.9444,-3.60803 -4.14238,-4.9444 3.74189,-5.47874 6.01307,2.53885 1.87119,-5.879736 -6.14742,-2.004528 1.33636,-6.949451 5.74642,-0.668171 -0.93536,-6.414079 -6.01357,0.935339 -3.07372,-5.746419 5.21157,-3.875209 -4.54339,-5.078241 -4.27623,4.142888 -5.47925,-3.608559 2.27221,-5.879748 -5.6131,-2.138372 -2.53885,5.6131 -6.4146,-0.267679 z m -0.26717,9.531711 a 5.9696723,5.9696723 0 0 1 5.96965,5.969659 5.9696723,5.9696723 0 0 1 -5.96965,5.969672 5.9696723,5.9696723 0 0 1 -5.96966,-5.969672 5.9696723,5.9696723 0 0 1 5.96966,-5.969659 z m 16.03623,7.884279 a 5.9696723,5.9696723 0 0 1 5.96967,5.97017 5.9696723,5.9696723 0 0 1 -5.96967,5.969672 5.9696723,5.9696723 0 0 1 -5.96966,-5.969672 5.9696723,5.9696723 0 0 1 5.96966,-5.97017 z m -28.19725,4.944912 a 5.9696723,5.9696723 0 0 1 5.96967,5.969669 5.9696723,5.9696723 0 0 1 -5.96967,5.969659 5.9696723,5.9696723 0 0 1 -5.96966,-5.969659 5.9696723,5.9696723 0 0 1 5.96966,-5.969669 z m 14.83373,2.004528 a 5.9696723,5.9696723 0 0 1 5.96966,5.969662 5.9696723,5.9696723 0 0 1 -5.96966,5.969669 5.9696723,5.9696723 0 0 1 -5.96967,-5.969669 5.9696723,5.9696723 0 0 1 5.96967,-5.969662 z m 11.22514,10.556981 a 5.9696723,5.9696723 0 0 1 5.96968,5.969659 5.9696723,5.9696723 0 0 1 -5.96968,5.969666 5.9696723,5.9696723 0 0 1 -5.96965,-5.969666 5.9696723,5.9696723 0 0 1 5.96965,-5.969659 z m -18.17408,3.207041 a 5.9696723,5.9696723 0 0 1 5.96967,5.969664 5.9696723,5.9696723 0 0 1 -5.96967,5.96965 5.9696723,5.9696723 0 0 1 -5.96966,-5.96965 5.9696723,5.9696723 0 0 1 5.96966,-5.969664 z"
       id="path4545-6"
       inkscape:connector-curvature="0" />
    <path
       style="fill:#c87137;stroke:none;stroke-width:0.265;stroke-linecap:butt;stroke-linejoin:miter;stroke-opacity:1;stroke-miterlimit:4;stroke-dasharray:none"
       d="m 137.0349,82.613179 -1.60352,5.07824 -4.94492,1.06867 -2.93987,-4.9444 -4.27623,2.6727 2.67271,4.81108 -2.67271,4.27623 -5.34541,-1.73737 -1.20251,5.34541 5.07773,0.935351 1.47019,5.21208 -5.07824,2.80603 2.53938,4.27623 4.67724,-2.67271 3.87521,2.67271 -0.93534,5.74642 5.07824,1.20302 0.93535,-5.88026 5.61257,-0.53433 2.53886,4.81056 4.27623,-2.67271 -2.93987,-4.9444 2.6727,-3.47421 5.61258,1.06867 1.33635,-4.9444 -5.74591,-1.33635 -0.53485,-4.944401 4.41008,-3.20704 -2.67272,-4.54391 -4.41005,3.34088 -4.14239,-3.0732 1.20251,-5.3454 z m -2.00453,13.49685 a 4.9444862,4.9444862 0 0 1 4.9444,4.944401 4.9444862,4.9444862 0 0 1 -4.9444,4.94492 4.9444862,4.9444862 0 0 1 -4.9444,-4.94492 4.9444862,4.9444862 0 0 1 4.9444,-4.944401 z"
       id="path4559-8"
       inkscape:connector-curvature="0" />
    <path
       style="fill:#aa4400;stroke:none;stroke-width:0.265;stroke-linecap:butt;stroke-linejoin:miter;stroke-opacity:1;stroke-miterlimit:4;stroke-dasharray:none"
       d="m 190.46006,82.641594 -5.61311,0.40101 0.13386,4.81108 -5.47926,1.60353 -2.40504,-4.41007 -4.67722,2.13837 2.40501,4.81056 -3.87519,4.00905 -4.00908,-2.40502 -3.47419,4.67723 4.54337,2.137866 -0.93532,5.21157 -4.9444,0.26768 -0.26768,5.47872 4.81107,-0.26716 1.87069,5.34542 -4.5434,2.93987 2.13786,4.67723 5.07823,-2.53886 3.60804,3.47421 -2.27169,4.1429 3.87575,2.53886 3.07319,-4.00906 5.21208,0.93586 -0.26718,5.21157 5.74591,0.53433 0.2677,-5.21156 4.67723,-1.20251 2.67218,4.14238 4.81108,-2.40554 -2.93987,-4.54339 4.27622,-3.87522 4.81109,2.67271 2.53886,-4.54391 -4.81107,-2.6727 1.60403,-5.47874 4.9444,0.13331 0.26716,-5.07824 -5.21156,0.13385 -1.60403,-5.61258 4.67723,-2.672706 -2.80603,-4.94439 -4.00906,2.93987 -4.27623,-4.1429 2.80603,-4.27622 -4.81056,-3.20705 -2.53937,4.67723 -4.81058,-1.87119 z m 1.87069,10.42366 8.55244,6.01359 -3.47421,3.741876 -7.75095,-5.746396 z m -9.62166,0.40101 2.67272,4.14291 -7.61712,5.211546 -3.47472,-3.741876 z m 4.61008,11.359006 a 4.0758599,4.0758599 0 0 1 4.07622,4.0757 4.0758599,4.0758599 0 0 1 -4.07622,4.07573 4.0758599,4.0758599 0 0 1 -4.07572,-4.07573 4.0758599,4.0758599 0 0 1 4.07572,-4.0757 z m 11.42616,2.27169 5.21157,1.20251 -3.47472,9.88932 -4.67724,-2.00453 z m -22.31697,0.40101 2.40501,8.41912 -4.5434,2.00453 -2.67269,-9.35447 z m 6.01358,11.09183 9.75495,0.40049 0.40101,5.34541 -10.42366,-0.26717 z"
       id="path4576-99"
       inkscape:connector-curvature="0" />
    <path
       style="fill:#ff6600;stroke:none;stroke-width:0.265;stroke-linecap:butt;stroke-linejoin:miter;stroke-opacity:1;stroke-miterlimit:4;stroke-dasharray:none"
       d="m 206.47872,276.23239 -5.34541,0.26717 v 6.28127 l -2.40502,0.93534 -4.67723,-2.93987 -2.80655,4.27622 4.9444,3.20704 0.13384,3.20704 -4.81107,2.80655 2.80654,4.27622 4.41007,-3.07371 3.0732,1.73736 0.66818,5.47925 4.67723,-0.26716 -0.13333,-5.88026 2.53886,-1.06919 4.54391,2.94039 2.40503,-5.07824 -4.54341,-2.67271 v -2.53886 l 4.41007,-2.80655 -2.93987,-4.67723 -4.14289,2.80654 -2.93987,-1.60403 z m -2.53886,8.42739 a 4.9360323,4.9360294 0 0 1 4.93612,4.93614 4.9360323,4.9360294 0 0 1 -4.93612,4.93613 4.9360323,4.9360294 0 0 1 -4.93613,-4.93613 4.9360323,4.9360294 0 0 1 4.93613,-4.93614 z"
       id="path4588-2"
       inkscape:connector-curvature="0" />
  </g>
</svg>
